# xmcd
#
# Track frame offsets:
#	150
#	16490
#	38635
#	58016
#	72654
#	84402
#	94286
#	111217
#	126861
#	143129
#
# Disc length: 2213 seconds
#
# Revision: 1
# Processed by: cddbd v1.5.2PL0 Copyright (c) Steve Scherf et al.
# Submitted via: audiograbber 1.83.01
#
DISCID=8b08a30a
DTITLE=Moussu T e lei jovents - Inventé à la Ciotat
DYEAR=2007
DGENRE=Blues
TTITLE0=Mademoiselle Marseille
TTITLE1=Le cul sur le perron
TTITLE2=Bolega Banjo
TTITLE3=Mon escarrida
TTITLE4=Forever polida
TTITLE5=Oplati oplata (version dau port)
TTITLE6=Les formigues de la vida
TTITLE7=Sur la rive
TTITLE8=De matin revilhat
TTITLE9=Sur la rive (Barceloneta version)
EXTD=
EXTT0=
EXTT1=
EXTT2=
EXTT3=
EXTT4=
EXTT5=
EXTT6=
EXTT7=
EXTT8=
EXTT9=
PLAYORDER=
